<svg width="40" height="37" viewBox="0 0 40 37" fill="none" xmlns="http://www.w3.org/2000/svg">
<path d="M25.8369 15.9274C25.8484 16.0211 25.8557 16.1155 25.8588 16.2102C25.8588 16.7999 25.2465 18.5324 23.2219 19.0982C23.8329 19.3684 24.827 19.3457 25.2374 19.2154C25.6386 21.3371 24.9702 23.0228 24.6547 23.3762C23.0039 25.2275 21.5775 27.2654 22.3997 28.7971C23.295 30.4662 25.9254 29.3983 27.2723 27.1002C27.157 29.2312 26.7336 31.8857 26.2854 34.1184C25.9911 35.584 26.8927 37 28.1166 37H32.1278C33.9406 33.2057 34.9805 28.7817 34.9805 24.0593C34.9825 21.2949 34.6205 18.5486 33.9085 15.9274H37.5912C39.1206 15.9274 39.6375 13.407 38.2928 12.5104L29.334 6.53528L19.5333 0L9.73519 6.53528L0.775454 12.5104C-0.570584 13.407 -0.053564 15.9274 1.47585 15.9274H5.15971C4.44757 18.5485 4.08553 21.2949 4.08774 24.0593C4.08774 28.7817 5.1273 33.2057 6.94017 37H10.9501C12.1743 37 13.0756 35.584 12.7816 34.1184C12.3331 31.8857 11.9096 29.2312 11.7944 27.1002C13.1416 29.3983 15.7719 30.4662 16.6669 28.7971C17.4891 27.2654 16.0628 25.2275 14.4119 23.3762C14.0964 23.0228 13.4281 21.3371 13.8295 19.2154C14.24 19.3457 15.2337 19.3684 15.8451 19.0982C13.8205 18.5324 13.2083 16.7999 13.2083 16.2102C13.2113 16.1155 13.2186 16.0211 13.2301 15.9274C13.3054 15.2287 13.6 13.4807 14.3499 11.7736C13.9816 11.6786 13.6551 11.4185 13.4334 11.0436C13.2116 10.6686 13.1106 10.2056 13.1497 9.74405C13.2228 8.85745 13.8155 8.14333 14.5358 8.07261C14.8482 8.0404 15.161 8.12834 15.4312 8.32433C15.7014 8.52032 15.9157 8.81475 16.0447 9.16713C16.6739 8.52784 17.4155 8.07897 18.2104 7.85641C18.2993 7.83172 18.3915 7.8307 18.4808 7.85341C18.5701 7.87613 18.6544 7.92206 18.7282 7.98814C18.8019 8.05423 18.8634 8.13895 18.9085 8.23666C18.9537 8.33437 18.9814 8.44282 18.9899 8.55479C19.0989 9.98769 19.1378 12.3041 19.1036 12.6744C19.0655 13.0874 17.4561 14.8964 17.1902 15.9274C17.1599 16.0291 17.1477 16.1375 17.1543 16.2455C17.2406 17.1649 18.8021 17.9612 19.5333 17.9612C20.2649 17.9612 21.8263 17.1649 21.9126 16.2455C21.9191 16.1376 21.907 16.0292 21.8771 15.9274C21.6121 14.8964 20.0023 13.0874 19.9634 12.6744C19.9289 12.3041 19.9691 9.98769 20.0771 8.55479C20.0857 8.44291 20.1135 8.33458 20.1586 8.23697C20.2037 8.13936 20.2652 8.05472 20.3389 7.98866C20.4126 7.92261 20.4968 7.87666 20.586 7.85385C20.6752 7.83105 20.7674 7.83192 20.8563 7.85641L25.8369 15.9274ZM24.5324 8.07261C25.2901 8.14759 25.8964 8.93391 25.9241 9.87007L24.5324 8.07261ZM19.5336 14.8314C19.5336 15.0761 19.2518 15.274 18.903 15.274C18.5557 15.274 18.2727 15.0761 18.2727 14.8314C18.2727 14.5883 18.5557 14.3901 18.903 14.3901C19.2518 14.3901 19.5336 14.5883 19.5336 14.8314Z" fill="#2B67F6"/>
<path d="M11.4344 8.07267L20.6307 4.80396L29.3537 9.87012L28.948 37H10.9501" fill="#2B67F6"/>
<path d="M12.9532 22.4086C13.0371 21.4035 12.4445 20.5048 11.6297 20.4013C10.8149 20.2979 10.0864 21.0288 10.0025 22.0339C9.91859 23.039 10.5111 23.9376 11.3259 24.0411C12.1407 24.1446 12.8693 23.4137 12.9532 22.4086Z" fill="white"/>
<path d="M14.6131 16.1908C14.0095 17.189 14.0268 19.2972 13.506 22.6537C13.3096 23.9197 12.3786 24.6383 11.3364 24.5392C10.2144 24.4326 9.21674 23.2897 8.49524 22.3267C8.11618 21.8208 6.60089 19.5045 6.3748 19.1329C6.25442 21.2148 7.50342 23.8733 8.26643 25.8976C8.60733 26.8019 9.62019 29.9501 9.42439 29.9708C12.5258 29.6431 15.1287 28.2999 16.9969 27.5086C16.3489 26.249 14.6753 20.7484 14.6131 16.1908Z" fill="white"/>
<path d="M24.2776 15.274C23.3649 16.4833 22.175 19.7614 21.5854 20.9406C21.1544 21.8026 20.8955 22.5004 19.8705 22.7244C18.8361 22.9504 17.8422 22.0575 17.0471 21.1043C15.7948 19.603 15.1708 17.0257 14.9462 16.2873C14.7579 19.4462 16.5039 25.772 17.2773 27.381C18.3851 26.9328 20.4196 25.9111 23.4182 26.64C23.0665 24.1636 23.3977 18.4821 24.2776 15.274Z" fill="white"/>
<path d="M32.7005 19.1384C32.4182 19.6432 31.0432 23.0535 29.4355 24.2961C28.7051 24.8607 27.9881 25.3434 27.1436 24.9164C25.9655 24.3207 25.6398 23.0603 25.248 21.0332C25.0286 19.8982 24.8541 16.4925 24.5323 15.3479C23.5488 19.6456 23.5536 24.5528 23.7953 26.7563C25.5556 27.0787 28.137 28.423 30.0779 30.0647C30.1631 27.3198 30.675 27.0778 31.5837 24.6206C32.8415 21.2195 32.6808 20.042 32.7005 19.1384Z" fill="white"/>
<path d="M20.8644 20.971C21.1218 20.0118 20.7001 18.9768 19.9224 18.6592C19.1448 18.3417 18.3058 18.8619 18.0484 19.8212C17.7909 20.7804 18.2127 21.8154 18.9903 22.1329C19.7679 22.4504 20.607 21.9302 20.8644 20.971Z" fill="white"/>
<path d="M27.4195 24.3732C27.7051 24.456 28.0041 24.4324 28.2788 24.3056C28.5535 24.1787 28.7916 23.9542 28.9629 23.6604C29.1341 23.3667 29.2309 23.0169 29.241 22.6552C29.2511 22.2936 29.1741 21.9364 29.0196 21.6288C28.8651 21.3212 28.6402 21.077 28.3732 20.9271C28.1062 20.7772 27.8092 20.7283 27.5197 20.7866C27.2302 20.8449 26.9612 21.0079 26.7468 21.2547C26.5323 21.5016 26.3821 21.8214 26.315 22.1737C26.225 22.646 26.2908 23.1431 26.498 23.5556C26.7051 23.9681 27.0366 24.2622 27.4195 24.3732Z" fill="white"/>
</svg>
